# xmcd
#
# Track frame offsets:
#	150
#	16614
#	41478
#	81123
#	114748
#	136939
#	145347
#	167772
#
# Disc length: 2288
#
# Revision: 2
# Processed by: cddbd v1.5.1PL0 Copyright (c) Steve Scherf et al.
# Submitted via: dBpowerAMP V4.0
# Normalized: r0:TSWAP
#
DISCID=6008ee08
DTITLE=Mark Arshak Band - Mean Women Blues
DYEAR=2002
DGENRE=Blues
TTITLE0=Claude Demetrius - Mean Woman Blues
TTITLE1=Janis Joplin - What Good Can Drinkin' Do
TTITLE2=Guitar Slim - Somthing to Remember You By
TTITLE3=John Lee Hooker - In The Mood
TTITLE4=Jimi Hendrix - The Wind Cries Mary
TTITLE5=Mark Arshak - I Love My Money
TTITLE6=John Lee Hooker - My Father Was A Jockey
TTITLE7=Mark Arshak - Adios Amigos
EXTD=Mark Arshak Band recorded live @ Billy's in Grand Rapids Michigan on 2-8-02
EXTT0=
EXTT1=
EXTT2=
EXTT3=
EXTT4=
EXTT5=
EXTT6=
EXTT7=
PLAYORDER=
